<mxfile host="app.diagrams.net" agent="Mozilla/5.0 (Windows NT 10.0; Win64; x64) AppleWebKit/537.36 (KHTML, like Gecko) Chrome/129.0.0.0 Safari/537.36 Edg/129.0.0.0" version="24.7.6">
  <diagram name="Page-1" id="1HDXXYpsf4qxFuLjd2vX">
    <mxGraphModel dx="2742" dy="565" grid="1" gridSize="10" guides="1" tooltips="1" connect="1" arrows="1" fold="1" page="1" pageScale="1" pageWidth="850" pageHeight="1100" math="0" shadow="0">
      <root>
        <mxCell id="0" />
        <mxCell id="1" parent="0" />
        <mxCell id="7L-9NUfplAu3C36GX-nJ-7" value="&lt;p style=&quot;margin:0px;margin-top:6px;text-align:center;&quot;&gt;&lt;b&gt;&amp;lt;&amp;lt;Component&amp;gt;&amp;gt;Backend&lt;/b&gt;&lt;/p&gt;&lt;hr size=&quot;1&quot; style=&quot;border-style:solid;&quot;&gt;&lt;p style=&quot;margin:0px;margin-left:8px;&quot;&gt;&lt;br&gt;&lt;/p&gt;" style="align=left;overflow=fill;html=1;dropTarget=0;whiteSpace=wrap;" parent="1" vertex="1">
          <mxGeometry x="-520" y="60" width="300" height="700" as="geometry" />
        </mxCell>
        <mxCell id="7L-9NUfplAu3C36GX-nJ-8" value="" style="shape=component;jettyWidth=8;jettyHeight=4;" parent="7L-9NUfplAu3C36GX-nJ-7" vertex="1">
          <mxGeometry x="1" width="20" height="20" relative="1" as="geometry">
            <mxPoint x="-24" y="4" as="offset" />
          </mxGeometry>
        </mxCell>
        <mxCell id="7L-9NUfplAu3C36GX-nJ-1" value="«components»&lt;br&gt;&lt;b&gt;Challenge Service&lt;/b&gt;" style="html=1;dropTarget=0;whiteSpace=wrap;" parent="1" vertex="1">
          <mxGeometry x="-455" y="100" width="170" height="60" as="geometry" />
        </mxCell>
        <mxCell id="7L-9NUfplAu3C36GX-nJ-2" value="" style="shape=module;jettyWidth=8;jettyHeight=4;" parent="7L-9NUfplAu3C36GX-nJ-1" vertex="1">
          <mxGeometry x="1" width="20" height="20" relative="1" as="geometry">
            <mxPoint x="-27" y="7" as="offset" />
          </mxGeometry>
        </mxCell>
        <mxCell id="7L-9NUfplAu3C36GX-nJ-5" value="«Annotation»&lt;br&gt;&lt;b&gt;Solution Service&lt;/b&gt;" style="html=1;dropTarget=0;whiteSpace=wrap;" parent="1" vertex="1">
          <mxGeometry x="-455" y="190" width="165" height="60" as="geometry" />
        </mxCell>
        <mxCell id="7L-9NUfplAu3C36GX-nJ-6" value="" style="shape=module;jettyWidth=8;jettyHeight=4;" parent="7L-9NUfplAu3C36GX-nJ-5" vertex="1">
          <mxGeometry x="1" width="20" height="20" relative="1" as="geometry">
            <mxPoint x="-27" y="7" as="offset" />
          </mxGeometry>
        </mxCell>
        <mxCell id="7L-9NUfplAu3C36GX-nJ-9" value="«components»&lt;br&gt;&lt;b&gt;Discussion Service&lt;br&gt;&lt;/b&gt;" style="html=1;dropTarget=0;whiteSpace=wrap;" parent="1" vertex="1">
          <mxGeometry x="-455" y="290" width="170" height="60" as="geometry" />
        </mxCell>
        <mxCell id="7L-9NUfplAu3C36GX-nJ-10" value="" style="shape=module;jettyWidth=8;jettyHeight=4;" parent="7L-9NUfplAu3C36GX-nJ-9" vertex="1">
          <mxGeometry x="1" width="20" height="20" relative="1" as="geometry">
            <mxPoint x="-27" y="7" as="offset" />
          </mxGeometry>
        </mxCell>
        <mxCell id="7L-9NUfplAu3C36GX-nJ-11" value="«components»&lt;br&gt;&lt;b&gt;Authentication Service&lt;/b&gt;" style="html=1;dropTarget=0;whiteSpace=wrap;" parent="1" vertex="1">
          <mxGeometry x="-455" y="380" width="170" height="60" as="geometry" />
        </mxCell>
        <mxCell id="7L-9NUfplAu3C36GX-nJ-12" value="" style="shape=module;jettyWidth=8;jettyHeight=4;" parent="7L-9NUfplAu3C36GX-nJ-11" vertex="1">
          <mxGeometry x="1" width="20" height="20" relative="1" as="geometry">
            <mxPoint x="-27" y="7" as="offset" />
          </mxGeometry>
        </mxCell>
        <mxCell id="7L-9NUfplAu3C36GX-nJ-13" value="«components»&lt;br&gt;&lt;b&gt;User Service&lt;/b&gt;" style="html=1;dropTarget=0;whiteSpace=wrap;" parent="1" vertex="1">
          <mxGeometry x="-455" y="480" width="170" height="60" as="geometry" />
        </mxCell>
        <mxCell id="7L-9NUfplAu3C36GX-nJ-14" value="" style="shape=module;jettyWidth=8;jettyHeight=4;" parent="7L-9NUfplAu3C36GX-nJ-13" vertex="1">
          <mxGeometry x="1" width="20" height="20" relative="1" as="geometry">
            <mxPoint x="-27" y="7" as="offset" />
          </mxGeometry>
        </mxCell>
        <mxCell id="7L-9NUfplAu3C36GX-nJ-15" value="«components»&lt;br&gt;&lt;b&gt;Leaderboard Service&lt;/b&gt;" style="html=1;dropTarget=0;whiteSpace=wrap;" parent="1" vertex="1">
          <mxGeometry x="-455" y="590" width="170" height="60" as="geometry" />
        </mxCell>
        <mxCell id="7L-9NUfplAu3C36GX-nJ-16" value="" style="shape=module;jettyWidth=8;jettyHeight=4;" parent="7L-9NUfplAu3C36GX-nJ-15" vertex="1">
          <mxGeometry x="1" width="20" height="20" relative="1" as="geometry">
            <mxPoint x="-27" y="7" as="offset" />
          </mxGeometry>
        </mxCell>
        <mxCell id="7L-9NUfplAu3C36GX-nJ-18" value="«components»&lt;br&gt;&lt;b&gt;Scorer Service&lt;/b&gt;" style="html=1;dropTarget=0;whiteSpace=wrap;" parent="1" vertex="1">
          <mxGeometry x="-457.5" y="680" width="170" height="60" as="geometry" />
        </mxCell>
        <mxCell id="7L-9NUfplAu3C36GX-nJ-19" value="" style="shape=module;jettyWidth=8;jettyHeight=4;" parent="7L-9NUfplAu3C36GX-nJ-18" vertex="1">
          <mxGeometry x="1" width="20" height="20" relative="1" as="geometry">
            <mxPoint x="-27" y="7" as="offset" />
          </mxGeometry>
        </mxCell>
        <mxCell id="7L-9NUfplAu3C36GX-nJ-21" value="&lt;p style=&quot;margin:0px;margin-top:6px;text-align:center;&quot;&gt;&lt;b&gt;&amp;lt;&amp;lt;Component&amp;gt;&amp;gt;Database&lt;/b&gt;&lt;/p&gt;&lt;hr size=&quot;1&quot; style=&quot;border-style:solid;&quot;&gt;&lt;p style=&quot;margin:0px;margin-left:8px;&quot;&gt;&lt;br&gt;&lt;/p&gt;" style="align=left;overflow=fill;html=1;dropTarget=0;whiteSpace=wrap;" parent="1" vertex="1">
          <mxGeometry x="-1040" y="230" width="300" height="280" as="geometry" />
        </mxCell>
        <mxCell id="7L-9NUfplAu3C36GX-nJ-22" value="" style="shape=component;jettyWidth=8;jettyHeight=4;" parent="7L-9NUfplAu3C36GX-nJ-21" vertex="1">
          <mxGeometry x="1" width="20" height="20" relative="1" as="geometry">
            <mxPoint x="-24" y="4" as="offset" />
          </mxGeometry>
        </mxCell>
        <mxCell id="7L-9NUfplAu3C36GX-nJ-31" value="&lt;p style=&quot;margin:0px;margin-top:6px;text-align:center;&quot;&gt;&lt;b&gt;&amp;lt;&amp;lt;Component&amp;gt;&amp;gt;Frontend&lt;br&gt;&lt;/b&gt;&lt;/p&gt;&lt;hr size=&quot;1&quot; style=&quot;border-style:solid;&quot;&gt;&lt;p style=&quot;margin:0px;margin-left:8px;&quot;&gt;&lt;br&gt;&lt;/p&gt;" style="align=left;overflow=fill;html=1;dropTarget=0;whiteSpace=wrap;" parent="1" vertex="1">
          <mxGeometry x="120" y="150" width="265" height="490" as="geometry" />
        </mxCell>
        <mxCell id="7L-9NUfplAu3C36GX-nJ-32" value="" style="shape=component;jettyWidth=8;jettyHeight=4;" parent="7L-9NUfplAu3C36GX-nJ-31" vertex="1">
          <mxGeometry x="1" width="20" height="20" relative="1" as="geometry">
            <mxPoint x="-24" y="4" as="offset" />
          </mxGeometry>
        </mxCell>
        <mxCell id="7L-9NUfplAu3C36GX-nJ-35" value="«components»&lt;br&gt;&lt;b&gt;Login Page&lt;br&gt;&lt;/b&gt;" style="html=1;dropTarget=0;whiteSpace=wrap;" parent="1" vertex="1">
          <mxGeometry x="170" y="185" width="170" height="60" as="geometry" />
        </mxCell>
        <mxCell id="7L-9NUfplAu3C36GX-nJ-36" value="" style="shape=module;jettyWidth=8;jettyHeight=4;" parent="7L-9NUfplAu3C36GX-nJ-35" vertex="1">
          <mxGeometry x="1" width="20" height="20" relative="1" as="geometry">
            <mxPoint x="-27" y="7" as="offset" />
          </mxGeometry>
        </mxCell>
        <mxCell id="7L-9NUfplAu3C36GX-nJ-37" value="«components»&lt;br&gt;&lt;b&gt;Leaderboard Page&lt;br&gt;&lt;/b&gt;" style="html=1;dropTarget=0;whiteSpace=wrap;" parent="1" vertex="1">
          <mxGeometry x="167.5" y="530" width="170" height="60" as="geometry" />
        </mxCell>
        <mxCell id="7L-9NUfplAu3C36GX-nJ-38" value="" style="shape=module;jettyWidth=8;jettyHeight=4;" parent="7L-9NUfplAu3C36GX-nJ-37" vertex="1">
          <mxGeometry x="1" width="20" height="20" relative="1" as="geometry">
            <mxPoint x="-27" y="7" as="offset" />
          </mxGeometry>
        </mxCell>
        <mxCell id="7L-9NUfplAu3C36GX-nJ-39" value="«components»&lt;br&gt;&lt;b&gt;Discussion Page&lt;br&gt;&lt;/b&gt;" style="html=1;dropTarget=0;whiteSpace=wrap;" parent="1" vertex="1">
          <mxGeometry x="170" y="260" width="170" height="60" as="geometry" />
        </mxCell>
        <mxCell id="7L-9NUfplAu3C36GX-nJ-40" value="" style="shape=module;jettyWidth=8;jettyHeight=4;" parent="7L-9NUfplAu3C36GX-nJ-39" vertex="1">
          <mxGeometry x="1" width="20" height="20" relative="1" as="geometry">
            <mxPoint x="-27" y="7" as="offset" />
          </mxGeometry>
        </mxCell>
        <mxCell id="7L-9NUfplAu3C36GX-nJ-41" value="«components»&lt;br&gt;&lt;b&gt;Challenge Page&lt;br&gt;&lt;/b&gt;" style="html=1;dropTarget=0;whiteSpace=wrap;" parent="1" vertex="1">
          <mxGeometry x="170" y="425" width="170" height="60" as="geometry" />
        </mxCell>
        <mxCell id="7L-9NUfplAu3C36GX-nJ-42" value="" style="shape=module;jettyWidth=8;jettyHeight=4;" parent="7L-9NUfplAu3C36GX-nJ-41" vertex="1">
          <mxGeometry x="1" width="20" height="20" relative="1" as="geometry">
            <mxPoint x="-27" y="7" as="offset" />
          </mxGeometry>
        </mxCell>
        <mxCell id="7L-9NUfplAu3C36GX-nJ-43" value="«components»&lt;br&gt;&lt;b&gt;Profile Page&lt;br&gt;&lt;/b&gt;" style="html=1;dropTarget=0;whiteSpace=wrap;" parent="1" vertex="1">
          <mxGeometry x="170" y="337.5" width="170" height="60" as="geometry" />
        </mxCell>
        <mxCell id="7L-9NUfplAu3C36GX-nJ-44" value="" style="shape=module;jettyWidth=8;jettyHeight=4;" parent="7L-9NUfplAu3C36GX-nJ-43" vertex="1">
          <mxGeometry x="1" width="20" height="20" relative="1" as="geometry">
            <mxPoint x="-27" y="7" as="offset" />
          </mxGeometry>
        </mxCell>
        <mxCell id="7L-9NUfplAu3C36GX-nJ-89" value="«Annotation»&lt;br&gt;&lt;b&gt;Database&lt;/b&gt;" style="html=1;dropTarget=0;whiteSpace=wrap;" parent="1" vertex="1">
          <mxGeometry x="-980" y="275" width="180" height="185" as="geometry" />
        </mxCell>
        <mxCell id="sDSXD81bi1spxglW7oIP-6" value="" style="rounded=0;orthogonalLoop=1;jettySize=auto;html=1;endArrow=halfCircle;endFill=0;endSize=6;strokeWidth=1;sketch=0;" parent="1" target="sDSXD81bi1spxglW7oIP-8" edge="1">
          <mxGeometry relative="1" as="geometry">
            <mxPoint x="-457" y="305" as="sourcePoint" />
          </mxGeometry>
        </mxCell>
        <mxCell id="sDSXD81bi1spxglW7oIP-7" value="" style="rounded=0;orthogonalLoop=1;jettySize=auto;html=1;endArrow=oval;endFill=0;sketch=0;sourcePerimeterSpacing=0;targetPerimeterSpacing=0;endSize=10;exitX=1.002;exitY=0.347;exitDx=0;exitDy=0;exitPerimeter=0;" parent="1" source="7L-9NUfplAu3C36GX-nJ-89" target="sDSXD81bi1spxglW7oIP-8" edge="1">
          <mxGeometry relative="1" as="geometry">
            <mxPoint x="-497" y="305" as="sourcePoint" />
          </mxGeometry>
        </mxCell>
        <mxCell id="sDSXD81bi1spxglW7oIP-76" value="Recives Player Disscussions" style="edgeLabel;html=1;align=center;verticalAlign=middle;resizable=0;points=[];" parent="sDSXD81bi1spxglW7oIP-7" vertex="1" connectable="0">
          <mxGeometry x="-0.1574" relative="1" as="geometry">
            <mxPoint x="52" y="-5" as="offset" />
          </mxGeometry>
        </mxCell>
        <mxCell id="sDSXD81bi1spxglW7oIP-8" value="" style="ellipse;whiteSpace=wrap;html=1;align=center;aspect=fixed;fillColor=none;strokeColor=none;resizable=0;perimeter=centerPerimeter;rotatable=0;allowArrows=0;points=[];outlineConnect=1;" parent="1" vertex="1">
          <mxGeometry x="-550" y="300" width="10" height="10" as="geometry" />
        </mxCell>
        <mxCell id="sDSXD81bi1spxglW7oIP-12" value="" style="rounded=0;orthogonalLoop=1;jettySize=auto;html=1;endArrow=halfCircle;endFill=0;endSize=6;strokeWidth=1;sketch=0;fontSize=12;curved=1;exitX=1;exitY=0.75;exitDx=0;exitDy=0;entryX=0.108;entryY=0.373;entryDx=0;entryDy=0;entryPerimeter=0;" parent="1" source="7L-9NUfplAu3C36GX-nJ-89" target="sDSXD81bi1spxglW7oIP-16" edge="1">
          <mxGeometry relative="1" as="geometry">
            <mxPoint x="-455" y="455" as="sourcePoint" />
            <mxPoint x="-550" y="620" as="targetPoint" />
          </mxGeometry>
        </mxCell>
        <mxCell id="sDSXD81bi1spxglW7oIP-80" value="Receives leader board data&amp;nbsp; " style="edgeLabel;html=1;align=center;verticalAlign=middle;resizable=0;points=[];" parent="sDSXD81bi1spxglW7oIP-12" vertex="1" connectable="0">
          <mxGeometry x="0.2597" relative="1" as="geometry">
            <mxPoint x="9" y="-4" as="offset" />
          </mxGeometry>
        </mxCell>
        <mxCell id="sDSXD81bi1spxglW7oIP-13" value="" style="ellipse;whiteSpace=wrap;html=1;align=center;aspect=fixed;fillColor=none;strokeColor=none;resizable=0;perimeter=centerPerimeter;rotatable=0;allowArrows=0;points=[];outlineConnect=1;" parent="1" vertex="1">
          <mxGeometry x="-480" y="450" width="10" height="10" as="geometry" />
        </mxCell>
        <mxCell id="sDSXD81bi1spxglW7oIP-15" value="" style="rounded=0;orthogonalLoop=1;jettySize=auto;html=1;endArrow=oval;endFill=0;sketch=0;sourcePerimeterSpacing=0;targetPerimeterSpacing=0;endSize=10;exitX=0;exitY=0.5;exitDx=0;exitDy=0;" parent="1" source="7L-9NUfplAu3C36GX-nJ-15" target="sDSXD81bi1spxglW7oIP-16" edge="1">
          <mxGeometry relative="1" as="geometry">
            <mxPoint x="-490" y="645" as="sourcePoint" />
          </mxGeometry>
        </mxCell>
        <mxCell id="sDSXD81bi1spxglW7oIP-16" value="" style="ellipse;whiteSpace=wrap;html=1;align=center;aspect=fixed;fillColor=none;strokeColor=none;resizable=0;perimeter=centerPerimeter;rotatable=0;allowArrows=0;points=[];outlineConnect=1;" parent="1" vertex="1">
          <mxGeometry x="-550" y="615" width="10" height="10" as="geometry" />
        </mxCell>
        <mxCell id="sDSXD81bi1spxglW7oIP-23" value="" style="rounded=0;orthogonalLoop=1;jettySize=auto;html=1;endArrow=halfCircle;endFill=0;endSize=6;strokeWidth=1;sketch=0;exitX=1;exitY=1;exitDx=0;exitDy=0;" parent="1" source="7L-9NUfplAu3C36GX-nJ-89" target="sDSXD81bi1spxglW7oIP-25" edge="1">
          <mxGeometry relative="1" as="geometry">
            <mxPoint x="-700" y="655" as="sourcePoint" />
          </mxGeometry>
        </mxCell>
        <mxCell id="sDSXD81bi1spxglW7oIP-81" value="Receives updated score" style="edgeLabel;html=1;align=center;verticalAlign=middle;resizable=0;points=[];" parent="sDSXD81bi1spxglW7oIP-23" vertex="1" connectable="0">
          <mxGeometry x="0.2471" relative="1" as="geometry">
            <mxPoint as="offset" />
          </mxGeometry>
        </mxCell>
        <mxCell id="sDSXD81bi1spxglW7oIP-24" value="" style="rounded=0;orthogonalLoop=1;jettySize=auto;html=1;endArrow=oval;endFill=0;sketch=0;sourcePerimeterSpacing=0;targetPerimeterSpacing=0;endSize=10;exitX=0;exitY=0.5;exitDx=0;exitDy=0;" parent="1" source="7L-9NUfplAu3C36GX-nJ-18" target="sDSXD81bi1spxglW7oIP-25" edge="1">
          <mxGeometry relative="1" as="geometry">
            <mxPoint x="-740" y="655" as="sourcePoint" />
          </mxGeometry>
        </mxCell>
        <mxCell id="sDSXD81bi1spxglW7oIP-25" value="" style="ellipse;whiteSpace=wrap;html=1;align=center;aspect=fixed;fillColor=none;strokeColor=none;resizable=0;perimeter=centerPerimeter;rotatable=0;allowArrows=0;points=[];outlineConnect=1;" parent="1" vertex="1">
          <mxGeometry x="-550" y="705" width="10" height="10" as="geometry" />
        </mxCell>
        <mxCell id="sDSXD81bi1spxglW7oIP-26" value="" style="rounded=0;orthogonalLoop=1;jettySize=auto;html=1;endArrow=halfCircle;endFill=0;endSize=6;strokeWidth=1;sketch=0;exitX=0;exitY=0.5;exitDx=0;exitDy=0;entryX=0.827;entryY=0.678;entryDx=0;entryDy=0;entryPerimeter=0;" parent="1" source="7L-9NUfplAu3C36GX-nJ-13" target="sDSXD81bi1spxglW7oIP-28" edge="1">
          <mxGeometry relative="1" as="geometry">
            <mxPoint x="-530" y="495" as="sourcePoint" />
            <mxPoint x="-540" y="510" as="targetPoint" />
          </mxGeometry>
        </mxCell>
        <mxCell id="sDSXD81bi1spxglW7oIP-27" value="" style="rounded=0;orthogonalLoop=1;jettySize=auto;html=1;endArrow=oval;endFill=0;sketch=0;sourcePerimeterSpacing=0;targetPerimeterSpacing=0;endSize=10;exitX=0.999;exitY=0.631;exitDx=0;exitDy=0;exitPerimeter=0;" parent="1" source="7L-9NUfplAu3C36GX-nJ-89" target="sDSXD81bi1spxglW7oIP-28" edge="1">
          <mxGeometry relative="1" as="geometry">
            <mxPoint x="-570" y="495" as="sourcePoint" />
          </mxGeometry>
        </mxCell>
        <mxCell id="sDSXD81bi1spxglW7oIP-79" value="Sends user data" style="edgeLabel;html=1;align=center;verticalAlign=middle;resizable=0;points=[];" parent="sDSXD81bi1spxglW7oIP-27" vertex="1" connectable="0">
          <mxGeometry x="0.2299" y="-1" relative="1" as="geometry">
            <mxPoint x="1" as="offset" />
          </mxGeometry>
        </mxCell>
        <mxCell id="sDSXD81bi1spxglW7oIP-28" value="" style="ellipse;whiteSpace=wrap;html=1;align=center;aspect=fixed;fillColor=none;strokeColor=none;resizable=0;perimeter=centerPerimeter;rotatable=0;allowArrows=0;points=[];outlineConnect=1;" parent="1" vertex="1">
          <mxGeometry x="-550" y="505" width="10" height="10" as="geometry" />
        </mxCell>
        <mxCell id="sDSXD81bi1spxglW7oIP-29" value="" style="rounded=0;orthogonalLoop=1;jettySize=auto;html=1;endArrow=halfCircle;endFill=0;endSize=6;strokeWidth=1;sketch=0;exitX=0;exitY=0.5;exitDx=0;exitDy=0;entryX=1.022;entryY=0.459;entryDx=0;entryDy=0;entryPerimeter=0;" parent="1" source="7L-9NUfplAu3C36GX-nJ-5" target="sDSXD81bi1spxglW7oIP-31" edge="1">
          <mxGeometry relative="1" as="geometry">
            <mxPoint x="-580" y="315" as="sourcePoint" />
            <mxPoint x="-540" y="220" as="targetPoint" />
          </mxGeometry>
        </mxCell>
        <mxCell id="sDSXD81bi1spxglW7oIP-30" value="" style="rounded=0;orthogonalLoop=1;jettySize=auto;html=1;endArrow=oval;endFill=0;sketch=0;sourcePerimeterSpacing=0;targetPerimeterSpacing=0;endSize=10;exitX=1;exitY=0.25;exitDx=0;exitDy=0;" parent="1" source="7L-9NUfplAu3C36GX-nJ-89" target="sDSXD81bi1spxglW7oIP-31" edge="1">
          <mxGeometry relative="1" as="geometry">
            <mxPoint x="-620" y="315" as="sourcePoint" />
          </mxGeometry>
        </mxCell>
        <mxCell id="sDSXD81bi1spxglW7oIP-72" value="Sends Solution code" style="edgeLabel;html=1;align=center;verticalAlign=middle;resizable=0;points=[];" parent="sDSXD81bi1spxglW7oIP-30" vertex="1" connectable="0">
          <mxGeometry x="0.0782" y="-1" relative="1" as="geometry">
            <mxPoint x="23" y="-8" as="offset" />
          </mxGeometry>
        </mxCell>
        <mxCell id="sDSXD81bi1spxglW7oIP-31" value="" style="ellipse;whiteSpace=wrap;html=1;align=center;aspect=fixed;fillColor=none;strokeColor=none;resizable=0;perimeter=centerPerimeter;rotatable=0;allowArrows=0;points=[];outlineConnect=1;" parent="1" vertex="1">
          <mxGeometry x="-550" y="215" width="10" height="10" as="geometry" />
        </mxCell>
        <mxCell id="sDSXD81bi1spxglW7oIP-33" value="" style="rounded=0;orthogonalLoop=1;jettySize=auto;html=1;endArrow=halfCircle;endFill=0;endSize=6;strokeWidth=1;sketch=0;exitX=0;exitY=0.5;exitDx=0;exitDy=0;" parent="1" source="7L-9NUfplAu3C36GX-nJ-11" edge="1">
          <mxGeometry relative="1" as="geometry">
            <mxPoint x="-480" y="455" as="sourcePoint" />
            <mxPoint x="-550" y="410" as="targetPoint" />
          </mxGeometry>
        </mxCell>
        <mxCell id="sDSXD81bi1spxglW7oIP-34" value="" style="rounded=0;orthogonalLoop=1;jettySize=auto;html=1;endArrow=oval;endFill=0;sketch=0;sourcePerimeterSpacing=0;targetPerimeterSpacing=0;endSize=10;exitX=1;exitY=0.5;exitDx=0;exitDy=0;" parent="1" source="7L-9NUfplAu3C36GX-nJ-89" edge="1">
          <mxGeometry relative="1" as="geometry">
            <mxPoint x="-520" y="455" as="sourcePoint" />
            <mxPoint x="-550" y="410" as="targetPoint" />
          </mxGeometry>
        </mxCell>
        <mxCell id="sDSXD81bi1spxglW7oIP-78" value="Sends authentication api " style="edgeLabel;html=1;align=center;verticalAlign=middle;resizable=0;points=[];" parent="sDSXD81bi1spxglW7oIP-34" vertex="1" connectable="0">
          <mxGeometry x="0.1311" relative="1" as="geometry">
            <mxPoint x="19" y="3" as="offset" />
          </mxGeometry>
        </mxCell>
        <mxCell id="sDSXD81bi1spxglW7oIP-35" value="" style="ellipse;whiteSpace=wrap;html=1;align=center;aspect=fixed;fillColor=none;strokeColor=none;resizable=0;perimeter=centerPerimeter;rotatable=0;allowArrows=0;points=[];outlineConnect=1;" parent="1" vertex="1">
          <mxGeometry x="-505" y="450" width="10" height="10" as="geometry" />
        </mxCell>
        <mxCell id="sDSXD81bi1spxglW7oIP-40" value="" style="rounded=0;orthogonalLoop=1;jettySize=auto;html=1;endArrow=halfCircle;endFill=0;endSize=6;strokeWidth=1;sketch=0;exitX=0;exitY=0.5;exitDx=0;exitDy=0;" parent="1" source="7L-9NUfplAu3C36GX-nJ-1" target="sDSXD81bi1spxglW7oIP-42" edge="1">
          <mxGeometry relative="1" as="geometry">
            <mxPoint x="-640" y="225" as="sourcePoint" />
          </mxGeometry>
        </mxCell>
        <mxCell id="sDSXD81bi1spxglW7oIP-41" value="" style="rounded=0;orthogonalLoop=1;jettySize=auto;html=1;endArrow=oval;endFill=0;sketch=0;sourcePerimeterSpacing=0;targetPerimeterSpacing=0;endSize=10;exitX=1.002;exitY=0.09;exitDx=0;exitDy=0;exitPerimeter=0;" parent="1" source="7L-9NUfplAu3C36GX-nJ-89" target="sDSXD81bi1spxglW7oIP-42" edge="1">
          <mxGeometry relative="1" as="geometry">
            <mxPoint x="-680" y="225" as="sourcePoint" />
          </mxGeometry>
        </mxCell>
        <mxCell id="sDSXD81bi1spxglW7oIP-71" value="Sends Challenge code" style="edgeLabel;html=1;align=center;verticalAlign=middle;resizable=0;points=[];" parent="sDSXD81bi1spxglW7oIP-41" vertex="1" connectable="0">
          <mxGeometry x="0.2333" y="-1" relative="1" as="geometry">
            <mxPoint y="-1" as="offset" />
          </mxGeometry>
        </mxCell>
        <mxCell id="sDSXD81bi1spxglW7oIP-42" value="" style="ellipse;whiteSpace=wrap;html=1;align=center;aspect=fixed;fillColor=none;strokeColor=none;resizable=0;perimeter=centerPerimeter;rotatable=0;allowArrows=0;points=[];outlineConnect=1;" parent="1" vertex="1">
          <mxGeometry x="-550" y="130" width="10" height="10" as="geometry" />
        </mxCell>
        <mxCell id="sDSXD81bi1spxglW7oIP-43" value="" style="rounded=0;orthogonalLoop=1;jettySize=auto;html=1;endArrow=halfCircle;endFill=0;endSize=6;strokeWidth=1;sketch=0;exitX=0;exitY=0.75;exitDx=0;exitDy=0;" parent="1" source="7L-9NUfplAu3C36GX-nJ-37" edge="1">
          <mxGeometry relative="1" as="geometry">
            <mxPoint x="40" y="580" as="sourcePoint" />
            <mxPoint x="100" y="580" as="targetPoint" />
          </mxGeometry>
        </mxCell>
        <mxCell id="sDSXD81bi1spxglW7oIP-44" value="" style="rounded=0;orthogonalLoop=1;jettySize=auto;html=1;endArrow=oval;endFill=0;sketch=0;sourcePerimeterSpacing=0;targetPerimeterSpacing=0;endSize=10;exitX=1.001;exitY=0.396;exitDx=0;exitDy=0;exitPerimeter=0;" parent="1" source="7L-9NUfplAu3C36GX-nJ-15" edge="1">
          <mxGeometry relative="1" as="geometry">
            <mxPoint x="-180" y="675" as="sourcePoint" />
            <mxPoint x="100" y="580" as="targetPoint" />
          </mxGeometry>
        </mxCell>
        <mxCell id="sDSXD81bi1spxglW7oIP-94" value="Sends Leaderboard" style="edgeLabel;html=1;align=center;verticalAlign=middle;resizable=0;points=[];" parent="sDSXD81bi1spxglW7oIP-44" vertex="1" connectable="0">
          <mxGeometry x="0.447" relative="1" as="geometry">
            <mxPoint x="26" as="offset" />
          </mxGeometry>
        </mxCell>
        <mxCell id="sDSXD81bi1spxglW7oIP-45" value="" style="ellipse;whiteSpace=wrap;html=1;align=center;aspect=fixed;fillColor=none;strokeColor=none;resizable=0;perimeter=centerPerimeter;rotatable=0;allowArrows=0;points=[];outlineConnect=1;" parent="1" vertex="1">
          <mxGeometry x="-165" y="670" width="10" height="10" as="geometry" />
        </mxCell>
        <mxCell id="sDSXD81bi1spxglW7oIP-49" value="" style="rounded=0;orthogonalLoop=1;jettySize=auto;html=1;endArrow=halfCircle;endFill=0;endSize=6;strokeWidth=1;sketch=0;exitX=0;exitY=0.5;exitDx=0;exitDy=0;entryX=1;entryY=1.2;entryDx=0;entryDy=0;entryPerimeter=0;" parent="1" source="7L-9NUfplAu3C36GX-nJ-41" target="sDSXD81bi1spxglW7oIP-51" edge="1">
          <mxGeometry relative="1" as="geometry">
            <mxPoint x="-245" y="135" as="sourcePoint" />
            <mxPoint x="-170" y="110" as="targetPoint" />
          </mxGeometry>
        </mxCell>
        <mxCell id="sDSXD81bi1spxglW7oIP-90" value="Sends challenge problem" style="edgeLabel;html=1;align=center;verticalAlign=middle;resizable=0;points=[];" parent="sDSXD81bi1spxglW7oIP-49" vertex="1" connectable="0">
          <mxGeometry x="0.645" relative="1" as="geometry">
            <mxPoint x="10" y="-2" as="offset" />
          </mxGeometry>
        </mxCell>
        <mxCell id="sDSXD81bi1spxglW7oIP-50" value="" style="rounded=0;orthogonalLoop=1;jettySize=auto;html=1;endArrow=oval;endFill=0;sketch=0;sourcePerimeterSpacing=0;targetPerimeterSpacing=0;endSize=10;" parent="1" target="sDSXD81bi1spxglW7oIP-51" edge="1">
          <mxGeometry relative="1" as="geometry">
            <mxPoint x="-285" y="135" as="sourcePoint" />
          </mxGeometry>
        </mxCell>
        <mxCell id="sDSXD81bi1spxglW7oIP-51" value="" style="ellipse;whiteSpace=wrap;html=1;align=center;aspect=fixed;fillColor=none;strokeColor=none;resizable=0;perimeter=centerPerimeter;rotatable=0;allowArrows=0;points=[];outlineConnect=1;" parent="1" vertex="1">
          <mxGeometry x="-200" y="130" width="10" height="10" as="geometry" />
        </mxCell>
        <mxCell id="sDSXD81bi1spxglW7oIP-52" value="" style="rounded=0;orthogonalLoop=1;jettySize=auto;html=1;endArrow=halfCircle;endFill=0;endSize=6;strokeWidth=1;sketch=0;exitX=1;exitY=0.25;exitDx=0;exitDy=0;" parent="1" source="7L-9NUfplAu3C36GX-nJ-9" target="sDSXD81bi1spxglW7oIP-54" edge="1">
          <mxGeometry relative="1" as="geometry">
            <mxPoint x="-10" y="333" as="sourcePoint" />
          </mxGeometry>
        </mxCell>
        <mxCell id="sDSXD81bi1spxglW7oIP-86" value="Receives player discussion" style="edgeLabel;html=1;align=center;verticalAlign=middle;resizable=0;points=[];" parent="sDSXD81bi1spxglW7oIP-52" vertex="1" connectable="0">
          <mxGeometry x="-0.4145" relative="1" as="geometry">
            <mxPoint x="30" y="2" as="offset" />
          </mxGeometry>
        </mxCell>
        <mxCell id="sDSXD81bi1spxglW7oIP-55" value="" style="rounded=0;orthogonalLoop=1;jettySize=auto;html=1;endArrow=oval;endFill=0;sketch=0;sourcePerimeterSpacing=0;targetPerimeterSpacing=0;endSize=10;exitX=0;exitY=0.25;exitDx=0;exitDy=0;" parent="1" source="7L-9NUfplAu3C36GX-nJ-39" target="sDSXD81bi1spxglW7oIP-54" edge="1">
          <mxGeometry relative="1" as="geometry">
            <mxPoint x="170" y="275" as="sourcePoint" />
            <mxPoint x="100" y="275" as="targetPoint" />
          </mxGeometry>
        </mxCell>
        <mxCell id="sDSXD81bi1spxglW7oIP-54" value="" style="ellipse;whiteSpace=wrap;html=1;align=center;aspect=fixed;fillColor=none;strokeColor=none;resizable=0;perimeter=centerPerimeter;rotatable=0;allowArrows=0;points=[];outlineConnect=1;" parent="1" vertex="1">
          <mxGeometry x="100" y="275" width="10" height="10" as="geometry" />
        </mxCell>
        <mxCell id="sDSXD81bi1spxglW7oIP-56" value="" style="rounded=0;orthogonalLoop=1;jettySize=auto;html=1;endArrow=halfCircle;endFill=0;endSize=6;strokeWidth=1;sketch=0;exitX=0;exitY=0.5;exitDx=0;exitDy=0;" parent="1" source="7L-9NUfplAu3C36GX-nJ-41" edge="1">
          <mxGeometry relative="1" as="geometry">
            <mxPoint x="-250" y="220" as="sourcePoint" />
            <mxPoint x="-200" y="220" as="targetPoint" />
          </mxGeometry>
        </mxCell>
        <mxCell id="sDSXD81bi1spxglW7oIP-92" value="Sends challenge solution" style="edgeLabel;html=1;align=center;verticalAlign=middle;resizable=0;points=[];" parent="sDSXD81bi1spxglW7oIP-56" vertex="1" connectable="0">
          <mxGeometry x="0.7667" y="2" relative="1" as="geometry">
            <mxPoint x="8" y="1" as="offset" />
          </mxGeometry>
        </mxCell>
        <mxCell id="sDSXD81bi1spxglW7oIP-57" value="" style="rounded=0;orthogonalLoop=1;jettySize=auto;html=1;endArrow=oval;endFill=0;sketch=0;sourcePerimeterSpacing=0;targetPerimeterSpacing=0;endSize=10;" parent="1" edge="1">
          <mxGeometry relative="1" as="geometry">
            <mxPoint x="-290" y="220" as="sourcePoint" />
            <mxPoint x="-200" y="220" as="targetPoint" />
          </mxGeometry>
        </mxCell>
        <mxCell id="sDSXD81bi1spxglW7oIP-58" value="" style="ellipse;whiteSpace=wrap;html=1;align=center;aspect=fixed;fillColor=none;strokeColor=none;resizable=0;perimeter=centerPerimeter;rotatable=0;allowArrows=0;points=[];outlineConnect=1;" parent="1" vertex="1">
          <mxGeometry x="-275" y="215" width="10" height="10" as="geometry" />
        </mxCell>
        <mxCell id="sDSXD81bi1spxglW7oIP-59" value="" style="rounded=0;orthogonalLoop=1;jettySize=auto;html=1;endArrow=halfCircle;endFill=0;endSize=6;strokeWidth=1;sketch=0;exitX=0;exitY=0.25;exitDx=0;exitDy=0;" parent="1" source="7L-9NUfplAu3C36GX-nJ-43" edge="1">
          <mxGeometry relative="1" as="geometry">
            <mxPoint x="-245" y="490" as="sourcePoint" />
            <mxPoint x="-190" y="490" as="targetPoint" />
          </mxGeometry>
        </mxCell>
        <mxCell id="sDSXD81bi1spxglW7oIP-88" value="Sends player data" style="edgeLabel;html=1;align=center;verticalAlign=middle;resizable=0;points=[];" parent="sDSXD81bi1spxglW7oIP-59" vertex="1" connectable="0">
          <mxGeometry x="0.2636" y="-1" relative="1" as="geometry">
            <mxPoint as="offset" />
          </mxGeometry>
        </mxCell>
        <mxCell id="sDSXD81bi1spxglW7oIP-60" value="" style="rounded=0;orthogonalLoop=1;jettySize=auto;html=1;endArrow=oval;endFill=0;sketch=0;sourcePerimeterSpacing=0;targetPerimeterSpacing=0;endSize=10;" parent="1" edge="1">
          <mxGeometry relative="1" as="geometry">
            <mxPoint x="-285" y="490" as="sourcePoint" />
            <mxPoint x="-190" y="490" as="targetPoint" />
          </mxGeometry>
        </mxCell>
        <mxCell id="sDSXD81bi1spxglW7oIP-61" value="" style="ellipse;whiteSpace=wrap;html=1;align=center;aspect=fixed;fillColor=none;strokeColor=none;resizable=0;perimeter=centerPerimeter;rotatable=0;allowArrows=0;points=[];outlineConnect=1;" parent="1" vertex="1">
          <mxGeometry x="-270" y="485" width="10" height="10" as="geometry" />
        </mxCell>
        <mxCell id="sDSXD81bi1spxglW7oIP-62" value="" style="rounded=0;orthogonalLoop=1;jettySize=auto;html=1;endArrow=halfCircle;endFill=0;endSize=6;strokeWidth=1;sketch=0;exitX=0;exitY=0.75;exitDx=0;exitDy=0;" parent="1" source="7L-9NUfplAu3C36GX-nJ-43" edge="1">
          <mxGeometry relative="1" as="geometry">
            <mxPoint x="-10" y="470" as="sourcePoint" />
            <mxPoint x="-200" y="695" as="targetPoint" />
          </mxGeometry>
        </mxCell>
        <mxCell id="sDSXD81bi1spxglW7oIP-89" value="Sends player score" style="edgeLabel;html=1;align=center;verticalAlign=middle;resizable=0;points=[];" parent="sDSXD81bi1spxglW7oIP-62" vertex="1" connectable="0">
          <mxGeometry x="-0.1018" y="-1" relative="1" as="geometry">
            <mxPoint as="offset" />
          </mxGeometry>
        </mxCell>
        <mxCell id="sDSXD81bi1spxglW7oIP-63" value="" style="rounded=0;orthogonalLoop=1;jettySize=auto;html=1;endArrow=oval;endFill=0;sketch=0;sourcePerimeterSpacing=0;targetPerimeterSpacing=0;endSize=10;exitX=1;exitY=0.25;exitDx=0;exitDy=0;" parent="1" source="7L-9NUfplAu3C36GX-nJ-18" edge="1">
          <mxGeometry relative="1" as="geometry">
            <mxPoint x="-50" y="475" as="sourcePoint" />
            <mxPoint x="-200" y="695" as="targetPoint" />
          </mxGeometry>
        </mxCell>
        <mxCell id="sDSXD81bi1spxglW7oIP-64" value="" style="ellipse;whiteSpace=wrap;html=1;align=center;aspect=fixed;fillColor=none;strokeColor=none;resizable=0;perimeter=centerPerimeter;rotatable=0;allowArrows=0;points=[];outlineConnect=1;" parent="1" vertex="1">
          <mxGeometry x="-35" y="470" width="10" height="10" as="geometry" />
        </mxCell>
        <mxCell id="sDSXD81bi1spxglW7oIP-65" value="" style="rounded=0;orthogonalLoop=1;jettySize=auto;html=1;endArrow=halfCircle;endFill=0;endSize=6;strokeWidth=1;sketch=0;exitX=1;exitY=0.25;exitDx=0;exitDy=0;" parent="1" source="7L-9NUfplAu3C36GX-nJ-11" target="sDSXD81bi1spxglW7oIP-67" edge="1">
          <mxGeometry relative="1" as="geometry">
            <mxPoint x="30" y="325" as="sourcePoint" />
          </mxGeometry>
        </mxCell>
        <mxCell id="sDSXD81bi1spxglW7oIP-66" value="" style="rounded=0;orthogonalLoop=1;jettySize=auto;html=1;endArrow=oval;endFill=0;sketch=0;sourcePerimeterSpacing=0;targetPerimeterSpacing=0;endSize=10;exitX=0;exitY=0.75;exitDx=0;exitDy=0;" parent="1" source="7L-9NUfplAu3C36GX-nJ-35" target="sDSXD81bi1spxglW7oIP-67" edge="1">
          <mxGeometry relative="1" as="geometry">
            <mxPoint x="-10" y="325" as="sourcePoint" />
          </mxGeometry>
        </mxCell>
        <mxCell id="sDSXD81bi1spxglW7oIP-67" value="" style="ellipse;whiteSpace=wrap;html=1;align=center;aspect=fixed;fillColor=none;strokeColor=none;resizable=0;perimeter=centerPerimeter;rotatable=0;allowArrows=0;points=[];outlineConnect=1;" parent="1" vertex="1">
          <mxGeometry x="100" y="240" width="10" height="10" as="geometry" />
        </mxCell>
        <mxCell id="sDSXD81bi1spxglW7oIP-70" value="" style="ellipse;whiteSpace=wrap;html=1;align=center;aspect=fixed;fillColor=none;strokeColor=none;resizable=0;perimeter=centerPerimeter;rotatable=0;allowArrows=0;points=[];outlineConnect=1;" parent="1" vertex="1">
          <mxGeometry x="-270" y="415" width="10" height="10" as="geometry" />
        </mxCell>
        <mxCell id="sDSXD81bi1spxglW7oIP-73" value="" style="rounded=0;orthogonalLoop=1;jettySize=auto;html=1;endArrow=halfCircle;endFill=0;endSize=6;strokeWidth=1;sketch=0;exitX=1.001;exitY=0.429;exitDx=0;exitDy=0;exitPerimeter=0;" parent="1" source="7L-9NUfplAu3C36GX-nJ-89" target="sDSXD81bi1spxglW7oIP-75" edge="1">
          <mxGeometry relative="1" as="geometry">
            <mxPoint x="-570" y="355" as="sourcePoint" />
          </mxGeometry>
        </mxCell>
        <mxCell id="sDSXD81bi1spxglW7oIP-77" value="Sends Player Disscussions" style="edgeLabel;html=1;align=center;verticalAlign=middle;resizable=0;points=[];" parent="sDSXD81bi1spxglW7oIP-73" vertex="1" connectable="0">
          <mxGeometry x="0.2483" y="1" relative="1" as="geometry">
            <mxPoint as="offset" />
          </mxGeometry>
        </mxCell>
        <mxCell id="sDSXD81bi1spxglW7oIP-74" value="" style="rounded=0;orthogonalLoop=1;jettySize=auto;html=1;endArrow=oval;endFill=0;sketch=0;sourcePerimeterSpacing=0;targetPerimeterSpacing=0;endSize=10;exitX=0;exitY=0.75;exitDx=0;exitDy=0;" parent="1" source="7L-9NUfplAu3C36GX-nJ-9" target="sDSXD81bi1spxglW7oIP-75" edge="1">
          <mxGeometry relative="1" as="geometry">
            <mxPoint x="-610" y="355" as="sourcePoint" />
          </mxGeometry>
        </mxCell>
        <mxCell id="sDSXD81bi1spxglW7oIP-75" value="" style="ellipse;whiteSpace=wrap;html=1;align=center;aspect=fixed;fillColor=none;strokeColor=none;resizable=0;perimeter=centerPerimeter;rotatable=0;allowArrows=0;points=[];outlineConnect=1;" parent="1" vertex="1">
          <mxGeometry x="-550" y="350" width="10" height="10" as="geometry" />
        </mxCell>
        <mxCell id="sDSXD81bi1spxglW7oIP-82" value="" style="rounded=0;orthogonalLoop=1;jettySize=auto;html=1;endArrow=halfCircle;endFill=0;endSize=6;strokeWidth=1;sketch=0;exitX=0;exitY=0.75;exitDx=0;exitDy=0;" parent="1" source="7L-9NUfplAu3C36GX-nJ-39" edge="1">
          <mxGeometry relative="1" as="geometry">
            <mxPoint x="-245" y="343" as="sourcePoint" />
            <mxPoint x="-200" y="330" as="targetPoint" />
          </mxGeometry>
        </mxCell>
        <mxCell id="sDSXD81bi1spxglW7oIP-85" value="Sends new disscussions" style="edgeLabel;html=1;align=center;verticalAlign=middle;resizable=0;points=[];" parent="sDSXD81bi1spxglW7oIP-82" vertex="1" connectable="0">
          <mxGeometry x="0.4624" y="2" relative="1" as="geometry">
            <mxPoint as="offset" />
          </mxGeometry>
        </mxCell>
        <mxCell id="sDSXD81bi1spxglW7oIP-83" value="" style="rounded=0;orthogonalLoop=1;jettySize=auto;html=1;endArrow=oval;endFill=0;sketch=0;sourcePerimeterSpacing=0;targetPerimeterSpacing=0;endSize=10;" parent="1" edge="1">
          <mxGeometry relative="1" as="geometry">
            <mxPoint x="-285" y="343" as="sourcePoint" />
            <mxPoint x="-200" y="330" as="targetPoint" />
          </mxGeometry>
        </mxCell>
        <mxCell id="sDSXD81bi1spxglW7oIP-84" value="" style="ellipse;whiteSpace=wrap;html=1;align=center;aspect=fixed;fillColor=none;strokeColor=none;resizable=0;perimeter=centerPerimeter;rotatable=0;allowArrows=0;points=[];outlineConnect=1;" parent="1" vertex="1">
          <mxGeometry x="-270" y="338" width="10" height="10" as="geometry" />
        </mxCell>
      </root>
    </mxGraphModel>
  </diagram>
</mxfile>
